<?xml version="1.0" standalone="no"?><!DOCTYPE svg PUBLIC "-//W3C//DTD SVG 1.1//EN" "http://www.w3.org/Graphics/SVG/1.1/DTD/svg11.dtd"><svg t="1635476514843" class="icon" viewBox="0 0 1024 1024" version="1.1" xmlns="http://www.w3.org/2000/svg" p-id="53564" xmlns:xlink="http://www.w3.org/1999/xlink" width="200" height="200"><defs><style type="text/css"></style></defs><path d="M784.120907 490.075567c-20.634761-20.634761-51.586902-30.952141-74.801008-36.110831l51.586902-51.586902c5.15869-5.15869 5.15869-10.31738 2.579345-15.476071-2.579345-5.15869-7.738035-10.31738-12.896725-10.31738-2.579345 0-30.952141-2.579345-87.697733-5.15869 2.579345-7.738035 2.579345-15.476071 2.579345-20.634761v-7.738035c49.007557-15.476071 85.118388-38.690176 85.118388-69.642318s-36.110831-56.745592-100.594459-72.221662c-10.31738-36.110831-25.793451-67.062972-43.848866-90.277078-15.476071-20.634761-41.269521-5.15869-59.324937 5.15869-10.31738 5.15869-23.214106 12.896725-30.952141 12.896725-10.31738 0-25.793451-7.738035-38.690177-12.896725-20.634761-12.896725-36.110831-20.634761-49.007556-12.896725-28.372796 20.634761-43.848866 56.745592-51.586902 95.435768-61.904282 15.476071-95.435768 41.269521-95.435768 72.221662s33.531486 54.166247 85.118388 69.642318v7.738035c0 7.738035 0 12.896725 2.579345 20.634761-56.745592 2.579345-87.697733 5.15869-87.697733 5.15869-5.15869 0-10.31738 5.15869-12.896726 10.31738s0 12.896725 2.579345 15.476071l49.007557 49.007556c-23.214106 5.15869-54.166247 15.476071-72.221663 36.110832-30.952141 33.531486-69.642317 190.871537-64.483627 216.664987 5.15869 23.214106 59.324937 72.221662 82.539043 92.856423v51.586902c-10.31738 7.738035-15.476071 20.634761-15.47607 33.531486 0 23.214106 20.634761 43.848866 43.848866 43.848867h441.06801c23.214106 0 43.848866-20.634761 43.848867-43.848867 0-12.896725-5.15869-25.793451-15.476071-33.531486v-49.007557c23.214106-20.634761 79.959698-69.642317 85.118388-95.435768 2.579345-20.634761-33.531486-177.974811-64.483627-211.506297z m-472.020151-219.244333c0-10.31738 18.055416-25.793451 59.324937-38.690176-2.579345 12.896725-2.579345 23.214106-5.15869 36.110831 0 7.738035 5.15869 15.476071 12.896725 15.476071h2.579345c7.738035 0 15.476071-5.15869 15.476071-12.896726 5.15869-46.428212 12.896725-113.491184 46.428211-139.284635 5.15869 2.579345 12.896725 5.15869 18.055416 7.738036 15.476071 7.738035 33.531486 18.055416 51.586902 18.055415s33.531486-10.31738 46.428211-18.055415c7.738035-5.15869 18.055416-10.31738 20.634761-10.317381 25.793451 28.372796 41.269521 74.801008 49.007557 128.967255l2.579345 12.896725c0 7.738035 7.738035 15.476071 18.055415 12.896726 7.738035 0 15.476071-7.738035 12.896726-18.055416l-2.579345-12.896725c0-7.738035-2.579345-15.476071-2.579346-23.214106 43.848866 12.896725 61.904282 28.372796 61.904283 38.690176 0 23.214106-79.959698 56.745592-201.188917 56.745592s-206.347607-30.952141-206.347607-54.166247z m203.768262 87.697733c41.269521 0 82.539043-2.579345 118.649874-10.31738 0 28.372796-15.476071 64.483627-43.848867 95.435768-25.793451 28.372796-54.166247 49.007557-74.801007 49.007557-43.848866 0-118.649874-82.539043-118.649874-144.443325 36.110831 5.15869 77.380353 10.31738 118.649874 10.31738z m216.664987 479.758187H296.624685v-224.403023h435.90932v224.403023z m2.579345 56.745592H294.04534c-7.738035 0-12.896725-5.15869-12.896725-12.896726s5.15869-12.896725 12.896725-12.896725h441.06801c7.738035 0 12.896725 5.15869 12.896726 12.896725s-5.15869 12.896725-12.896726 12.896726z m82.539043-193.450882c-2.579345 7.738035-25.793451 33.531486-54.166247 59.324937v-162.498741c0-7.738035-7.738035-15.476071-15.47607-15.47607H281.148615c-7.738035 0-15.476071 7.738035-15.476071 15.47607v157.340051c-25.793451-23.214106-49.007557-49.007557-51.586902-56.745592-2.579345-20.634761 33.531486-165.078086 56.745592-190.871537 18.055416-18.055416 56.745592-25.793451 74.801008-28.372796l33.531486 33.531487c5.15869 2.579345 7.738035 2.579345 12.896725 2.579345s7.738035-2.579345 10.317381-5.158691c5.15869-5.15869 5.15869-15.476071 0-20.63476l-87.697733-87.697733c15.476071 0 36.110831-2.579345 61.904282-2.579345 25.793451 61.904282 87.697733 123.808564 136.70529 123.808564 30.952141 0 67.062972-23.214106 98.015113-59.324937 18.055416-20.634761 30.952141-41.269521 38.690176-64.483627 25.793451 0 46.428212 2.579345 61.904282 2.579345L626.780856 490.075567c-5.15869 5.15869-5.15869 15.476071 0 20.63476 2.579345 2.579345 7.738035 5.15869 10.317381 5.158691 5.15869 0 7.738035-2.579345 10.31738-5.158691l30.952141-30.952141c18.055416 2.579345 61.904282 10.31738 79.959698 30.952141 25.793451 25.793451 61.904282 170.236776 59.324937 190.871537z" p-id="53565"></path></svg>